name C:\Users\u0101727\Documents\MyRepositories\upper-imu-dc\OpenSim\subject0\MA\ResultsMA\grid_4nodes_9dim\angles_24.mot
datacolumns 10
datarows 28
range 2400.01000000 2400.28000000
endheader 
time	clav_prot	clav_elev	scapula_abduction	scapula_elevation	scapula_upward_rot	scapula_winging	plane_elv	shoulder_elv	axial_rot	
       2400.01000000	        -50.00000000	        -10.00000000	        -40.00000000	          3.33333333	         30.00000000	          0.00000000	         30.00000000	         63.33333333	         90.00000000	
       2400.02000000	        -38.33333333	        -10.00000000	        -40.00000000	          3.33333333	         30.00000000	          0.00000000	         30.00000000	         63.33333333	         90.00000000	
       2400.03000000	        -26.66666667	        -10.00000000	        -40.00000000	          3.33333333	         30.00000000	          0.00000000	         30.00000000	         63.33333333	         90.00000000	
       2400.04000000	        -15.00000000	        -10.00000000	        -40.00000000	          3.33333333	         30.00000000	          0.00000000	         30.00000000	         63.33333333	         90.00000000	
       2400.05000000	        -50.00000000	          0.00000000	        -40.00000000	          3.33333333	         30.00000000	          0.00000000	         30.00000000	         63.33333333	         90.00000000	
       2400.06000000	        -38.33333333	          0.00000000	        -40.00000000	          3.33333333	         30.00000000	          0.00000000	         30.00000000	         63.33333333	         90.00000000	
       2400.07000000	        -26.66666667	          0.00000000	        -40.00000000	          3.33333333	         30.00000000	          0.00000000	         30.00000000	         63.33333333	         90.00000000	
       2400.08000000	        -15.00000000	          0.00000000	        -40.00000000	          3.33333333	         30.00000000	          0.00000000	         30.00000000	         63.33333333	         90.00000000	
       2400.09000000	        -50.00000000	         10.00000000	        -40.00000000	          3.33333333	         30.00000000	          0.00000000	         30.00000000	         63.33333333	         90.00000000	
       2400.10000000	        -38.33333333	         10.00000000	        -40.00000000	          3.33333333	         30.00000000	          0.00000000	         30.00000000	         63.33333333	         90.00000000	
       2400.11000000	        -26.66666667	         10.00000000	        -40.00000000	          3.33333333	         30.00000000	          0.00000000	         30.00000000	         63.33333333	         90.00000000	
       2400.12000000	        -15.00000000	         10.00000000	        -40.00000000	          3.33333333	         30.00000000	          0.00000000	         30.00000000	         63.33333333	         90.00000000	
       2400.13000000	        -50.00000000	         20.00000000	        -40.00000000	          3.33333333	         30.00000000	          0.00000000	         30.00000000	         63.33333333	         90.00000000	
       2400.14000000	        -38.33333333	         20.00000000	        -40.00000000	          3.33333333	         30.00000000	          0.00000000	         30.00000000	         63.33333333	         90.00000000	
       2400.15000000	        -26.66666667	         20.00000000	        -40.00000000	          3.33333333	         30.00000000	          0.00000000	         30.00000000	         63.33333333	         90.00000000	
       2400.16000000	        -15.00000000	         20.00000000	        -40.00000000	          3.33333333	         30.00000000	          0.00000000	         30.00000000	         63.33333333	         90.00000000	
       2400.17000000	        -50.00000000	        -10.00000000	        -21.66666667	          3.33333333	         30.00000000	          0.00000000	         30.00000000	         63.33333333	         90.00000000	
       2400.18000000	        -38.33333333	        -10.00000000	        -21.66666667	          3.33333333	         30.00000000	          0.00000000	         30.00000000	         63.33333333	         90.00000000	
       2400.19000000	        -26.66666667	        -10.00000000	        -21.66666667	          3.33333333	         30.00000000	          0.00000000	         30.00000000	         63.33333333	         90.00000000	
       2400.20000000	        -15.00000000	        -10.00000000	        -21.66666667	          3.33333333	         30.00000000	          0.00000000	         30.00000000	         63.33333333	         90.00000000	
       2400.21000000	        -50.00000000	          0.00000000	        -21.66666667	          3.33333333	         30.00000000	          0.00000000	         30.00000000	         63.33333333	         90.00000000	
       2400.22000000	        -38.33333333	          0.00000000	        -21.66666667	          3.33333333	         30.00000000	          0.00000000	         30.00000000	         63.33333333	         90.00000000	
       2400.23000000	        -26.66666667	          0.00000000	        -21.66666667	          3.33333333	         30.00000000	          0.00000000	         30.00000000	         63.33333333	         90.00000000	
       2400.24000000	        -15.00000000	          0.00000000	        -21.66666667	          3.33333333	         30.00000000	          0.00000000	         30.00000000	         63.33333333	         90.00000000	
       2400.25000000	        -50.00000000	         10.00000000	        -21.66666667	          3.33333333	         30.00000000	          0.00000000	         30.00000000	         63.33333333	         90.00000000	
       2400.26000000	        -38.33333333	         10.00000000	        -21.66666667	          3.33333333	         30.00000000	          0.00000000	         30.00000000	         63.33333333	         90.00000000	
       2400.27000000	        -26.66666667	         10.00000000	        -21.66666667	          3.33333333	         30.00000000	          0.00000000	         30.00000000	         63.33333333	         90.00000000	
       2400.28000000	        -15.00000000	         10.00000000	        -21.66666667	          3.33333333	         30.00000000	          0.00000000	         30.00000000	         63.33333333	         90.00000000	
